<svg xmlns="http://www.w3.org/2000/svg" width="390" height="844" viewBox="0 0 390 844"><rect width="390" height="844" fill="#F7F9F8"/><text x="18" y="20" font-family="Arial,Microsoft YaHei,sans-serif" font-size="12" font-weight="400" fill="#7A838D">19:48</text><text x="18" y="62" font-family="Arial,Microsoft YaHei,sans-serif" font-size="26" font-weight="700" fill="#20242A">消息</text><rect x="18" y="86" width="354" height="60" rx="16" fill="#fff" stroke="#E9EDF0"/><rect x="30" y="100" width="88" height="32" rx="16.0" fill="#F35C9D"/><text x="63.2" y="121.0" font-family="Arial,Microsoft YaHei,sans-serif" font-size="12" font-weight="600" fill="#fff">匿名匹配聊天</text><text x="130" y="121" font-family="Arial,Microsoft YaHei,sans-serif" font-size="11" font-weight="400" fill="#7A838D">随机匹配 · 流行话题</text><rect x="18" y="160" width="354" height="390" rx="16" fill="#fff" stroke="#E9EDF0"/><circle cx="56" cy="195" r="23" fill="#E9FAF3"/><text x="56" y="201" font-family="Arial,Microsoft YaHei,sans-serif" font-size="15" font-weight="700" fill="#159C6C">人</text><text x="92" y="189" font-family="Arial,Microsoft YaHei,sans-serif" font-size="14" font-weight="700" fill="#20242A">周岚</text><text x="92" y="210" font-family="Arial,Microsoft YaHei,sans-serif" font-size="11" font-weight="400" fill="#7A838D">顺便问个火锅？</text><text x="338" y="190" font-family="Arial,Microsoft YaHei,sans-serif" font-size="11" font-weight="600" fill="#F35C9D">2</text><line x1="34" y1="232" x2="356" y2="232" stroke="#E9EDF0"/><circle cx="56" cy="267" r="23" fill="#E9FAF3"/><text x="56" y="273" font-family="Arial,Microsoft YaHei,sans-serif" font-size="15" font-weight="700" fill="#159C6C">人</text><text x="92" y="261" font-family="Arial,Microsoft YaHei,sans-serif" font-size="14" font-weight="700" fill="#20242A">林曦</text><text x="92" y="282" font-family="Arial,Microsoft YaHei,sans-serif" font-size="11" font-weight="400" fill="#7A838D">嗯嗯</text><text x="338" y="262" font-family="Arial,Microsoft YaHei,sans-serif" font-size="11" font-weight="600" fill="#F35C9D"></text><line x1="34" y1="304" x2="356" y2="304" stroke="#E9EDF0"/><circle cx="56" cy="339" r="23" fill="#E9FAF3"/><text x="56" y="345" font-family="Arial,Microsoft YaHei,sans-serif" font-size="15" font-weight="700" fill="#159C6C">人</text><text x="92" y="333" font-family="Arial,Microsoft YaHei,sans-serif" font-size="14" font-weight="700" fill="#20242A">走查用户甲</text><text x="92" y="354" font-family="Arial,Microsoft YaHei,sans-serif" font-size="11" font-weight="400" fill="#7A838D">等你回复哦~</text><text x="338" y="334" font-family="Arial,Microsoft YaHei,sans-serif" font-size="11" font-weight="600" fill="#F35C9D">3</text><line x1="34" y1="376" x2="356" y2="376" stroke="#E9EDF0"/><circle cx="56" cy="411" r="23" fill="#E9FAF3"/><text x="56" y="417" font-family="Arial,Microsoft YaHei,sans-serif" font-size="15" font-weight="700" fill="#159C6C">人</text><text x="92" y="405" font-family="Arial,Microsoft YaHei,sans-serif" font-size="14" font-weight="700" fill="#20242A">产品助手</text><text x="92" y="426" font-family="Arial,Microsoft YaHei,sans-serif" font-size="11" font-weight="400" fill="#7A838D">欢迎加入校园恋爱社区</text><text x="338" y="406" font-family="Arial,Microsoft YaHei,sans-serif" font-size="11" font-weight="600" fill="#F35C9D"></text><line x1="34" y1="448" x2="356" y2="448" stroke="#E9EDF0"/><circle cx="56" cy="483" r="23" fill="#E9FAF3"/><text x="56" y="489" font-family="Arial,Microsoft YaHei,sans-serif" font-size="15" font-weight="700" fill="#159C6C">人</text><text x="92" y="477" font-family="Arial,Microsoft YaHei,sans-serif" font-size="14" font-weight="700" fill="#20242A">活动运营</text><text x="92" y="498" font-family="Arial,Microsoft YaHei,sans-serif" font-size="11" font-weight="400" fill="#7A838D">春季联谊会开始报名啦！</text><text x="338" y="478" font-family="Arial,Microsoft YaHei,sans-serif" font-size="11" font-weight="600" fill="#F35C9D"></text><rect x="0" y="774" width="390" height="70" fill="#fff" stroke="#E9EDF0"/><text x="27" y="814" font-family="Arial,Microsoft YaHei,sans-serif" font-size="11" font-weight="600" fill="#8B97A6">发现</text><circle cx="39" cy="792" r="8" fill="none" stroke="#8B97A6" stroke-width="2"/><text x="105" y="814" font-family="Arial,Microsoft YaHei,sans-serif" font-size="11" font-weight="600" fill="#8B97A6">附近</text><circle cx="117" cy="792" r="8" fill="none" stroke="#8B97A6" stroke-width="2"/><text x="183" y="814" font-family="Arial,Microsoft YaHei,sans-serif" font-size="11" font-weight="600" fill="#8B97A6">匹配</text><circle cx="195" cy="792" r="25" fill="#34C98F"/><text x="195" y="800" text-anchor="middle" font-family="Arial" font-size="23" fill="#fff">♥</text><text x="261" y="814" font-family="Arial,Microsoft YaHei,sans-serif" font-size="11" font-weight="600" fill="#34C98F">消息</text><circle cx="273" cy="792" r="8" fill="none" stroke="#34C98F" stroke-width="2"/><text x="339" y="814" font-family="Arial,Microsoft YaHei,sans-serif" font-size="11" font-weight="600" fill="#8B97A6">我的</text><circle cx="351" cy="792" r="8" fill="none" stroke="#8B97A6" stroke-width="2"/></svg>