<?xml version="1.0" encoding="UTF-8"?>
<!-- Generator: visioncortex VTracer 0.6.12 -->
<svg version="1.1" xmlns="http://www.w3.org/2000/svg" width="77" height="75">
<path d="M0 0 C5.656 -0.05 11.312 -0.086 16.968 -0.11 C18.888 -0.12 20.808 -0.133 22.729 -0.151 C25.504 -0.175 28.279 -0.187 31.055 -0.195 C31.9 -0.206 32.745 -0.216 33.616 -0.227 C41.741 -0.228 49.366 1.188 57 4 C57 4.66 57 5.32 57 6 C57.66 6 58.32 6 59 6 C59 6.66 59 7.32 59 8 C59.66 8 60.32 8 61 8 C61 8.66 61 9.32 61 10 C61.598 10.103 62.196 10.206 62.812 10.312 C65.318 11.1 66.328 12.009 68 14 C69.165 16.33 69.121 17.672 69.114 20.266 C69.113 20.706 69.113 20.706 69.113 22.935 C69.108 23.887 69.103 24.839 69.098 25.82 C69.096 26.794 69.095 27.768 69.093 28.771 C69.088 31.889 69.075 35.007 69.062 38.125 C69.057 40.236 69.053 42.346 69.049 44.457 C69.038 49.638 69.021 54.819 69 60 C68.505 59.835 68.505 59.835 66 59 C65.381 59.928 64.763 60.856 64.125 61.812 C63.438 62.844 63.438 62.844 60 68 C60.66 68.33 61.32 68.66 62 69 C62 72 62 72 60.852 73.672 C58.291 75.508 56.493 75.332 53.375 75.25 C52.393 75.235 51.41 75.219 50.398 75.203 C48 75 48 75 47 74 C45.226 73.983 43.452 74.037 41.68 74.121 C40.587 74.169 39.493 74.218 38.367 74.268 C37.791 74.296 37.791 74.296 34.875 74.438 C21.012 75.078 21.012 75.078 15 75 C15 74.67 15 74.34 15 74 C9.25 73.875 9.25 73.875 7 75 C7 74.34 7 73.68 7 73 C4.69 73 2.38 73 0 73 C0 72.34 0 71.68 0 71 C-0.66 71 -1.32 71 -2 71 C-2 69.68 -2 68.36 -2 67 C-2.66 67 -3.32 67 -4 67 C-4 65.68 -4 64.36 -4 63 C-4.66 62.67 -5.32 62.34 -6 62 C-8.07 54.911 -8.385 47.465 -8.375 40.125 C-8.376 39.148 -8.378 38.172 -8.379 37.166 C-8.233 26.852 -6.316 17.02 -4 7 C-3.361 6.876 -2.721 6.753 -2.062 6.625 C-1.382 6.419 -0.701 6.213 0 6 C0.33 5.34 0.66 4.68 1 4 C1.66 4 2.32 4 3 4 C2.34 3.34 1.68 2.68 1 2 C0.67 1.34 0.34 0.68 0 0 Z M-6 21 C-5 24 -5 24 -5 24 Z M-6 51 C-5 55 -5 55 -5 55 Z M65 51 C66 53 66 53 66 53 Z M59 68 C60 70 60 70 60 70 Z M0 69 C1 71 1 71 1 71 Z M43 71 C43 71.33 43 71.66 43 72 C44.65 72 46.3 72 48 72 C48 71.67 48 71.34 48 71 C46.35 71 44.7 71 43 71 Z " fill="#96ADB0" transform="translate(8,0)"/>
<path d="M0 0 C1.986 0.26 3.971 0.521 5.957 0.781 C8.795 1.085 11.384 0.958 14.223 0.648 C24.356 -0.073 24.356 -0.073 29.141 3.051 C35.488 9.315 38.483 14.881 39.156 23.762 C38.709 33.034 34.809 43.558 28 50 C19.999 56.221 12.052 58.025 2 57 C-5.374 55.073 -11.991 50.314 -16.352 44.062 C-17.306 42.414 -18.162 40.71 -19 39 C-19.33 38.34 -19.66 37.68 -20 37 C-20.04 34.667 -20.043 32.333 -20 30 C-19.051 30.887 -18.102 31.774 -17.125 32.688 C-7.047 41.056 1.888 42.135 14.704 41.248 C22.386 40.418 28.634 37.504 34 32 C36.91 27.324 36.516 22.331 36 17 C33.894 11.447 33.894 11.447 31 10 C30.918 13.044 31.024 15.072 32 18 C32.66 18 33.32 18 34 18 C35.602 21.203 35.35 24.517 35 28 C32.805 33.899 27.353 36.4 21.945 38.98 C17.459 40.84 13.839 41.302 9 41 C9.576 38.614 10.222 36.333 11 34 C9.68 34 8.36 34 7 34 C6.34 33.01 5.68 32.02 5 31 C2.375 30.312 2.375 30.312 0 30 C0.33 29.01 0.66 28.02 1 27 C-4.538 26.631 -4.538 26.631 -6.875 28.5 C-7.246 28.995 -7.617 29.49 -8 30 C-6.02 30.33 -4.04 30.66 -2 31 C-2.66 32.32 -3.32 33.64 -4 35 C-5.65 35 -7.3 35 -9 35 C-9 35.66 -9 36.32 -9 37 C-13.274 35.417 -15.265 32.494 -18 29 C-17.216 28.711 -16.433 28.422 -15.625 28.125 C-13 27 -13 27 -11 25 C-10.01 25 -9.02 25 -8 25 C-8 24.34 -8 23.68 -8 23 C-7.34 23 -6.68 23 -6 23 C-5.67 21.68 -5.34 20.36 -5 19 C-3.5 20.375 -3.5 20.375 -2 22 C-2 22.66 -2 23.32 -2 24 C1.366 22.557 3.51 20.667 6 18 C6.392 18.495 6.784 18.99 7.188 19.5 C9 21 9 21 11.5 21.312 C14 21 14 21 17 19 C16.625 17.062 16.625 17.062 16 15 C15.34 14.67 14.68 14.34 14 14 C14 15.65 14 17.3 14 19 C12.35 19.33 10.7 19.66 9 20 C8.34 18.68 7.68 17.36 7 16 C7.99 15.01 8.98 14.02 10 13 C9.093 13.041 8.185 13.082 7.25 13.125 C4 13 4 13 2.062 11.812 C0 11 0 11 -3.688 12.25 C-7 14 -7 14 -8 16 C-10.31 16 -12.62 16 -15 16 C-14.67 16.66 -14.34 17.32 -14 18 C-11.686 18.731 -9.352 19.401 -7 20 C-7 20.33 -7 20.66 -7 21 C-8.238 21.247 -9.475 21.495 -10.75 21.75 C-14.514 22.671 -16.531 23.913 -19 27 C-19.233 20.717 -18.405 15.12 -17 9 C-14 9 -11 9 -8 9 C-8.66 8.67 -9.32 8.34 -10 8 C-9.67 6.68 -9.34 5.36 -9 4 C-6.69 4 -4.38 4 -2 4 C-2 3.34 -2 2.68 -2 2 C-1.34 2 -0.68 2 0 2 C0 1.34 0 0.68 0 0 Z " fill="#D6480F" transform="translate(30,10)"/>
<path d="M0 0 C5.656 -0.05 11.312 -0.086 16.968 -0.11 C18.888 -0.12 20.808 -0.133 22.729 -0.151 C25.504 -0.175 28.279 -0.187 31.055 -0.195 C31.9 -0.206 32.745 -0.216 33.616 -0.227 C41.741 -0.228 49.366 1.188 57 4 C57 4.66 57 5.32 57 6 C57.66 6 58.32 6 59 6 C59 6.66 59 7.32 59 8 C59.66 8 60.32 8 61 8 C61 8.66 61 9.32 61 10 C61.598 10.103 62.196 10.206 62.812 10.312 C65.318 11.1 66.328 12.009 68 14 C69.165 16.33 69.121 17.672 69.114 20.266 C69.113 20.706 69.113 20.706 69.113 22.935 C69.108 23.887 69.103 24.839 69.098 25.82 C69.096 26.794 69.095 27.768 69.093 28.771 C69.088 31.889 69.075 35.007 69.062 38.125 C69.057 40.236 69.053 42.346 69.049 44.457 C69.038 49.638 69.021 54.819 69 60 C68.505 59.835 68.505 59.835 66 59 C65.381 59.928 64.763 60.856 64.125 61.812 C63.438 62.844 63.438 62.844 60 68 C60.66 68.33 61.32 68.66 62 69 C62 72 62 72 60.852 73.672 C58.291 75.508 56.493 75.332 53.375 75.25 C52.393 75.235 51.41 75.219 50.398 75.203 C48 75 48 75 47 74 C45.226 73.983 43.452 74.037 41.68 74.121 C40.587 74.169 39.493 74.218 38.367 74.268 C37.791 74.296 37.791 74.296 34.875 74.438 C21.012 75.078 21.012 75.078 15 75 C15 74.67 15 74.34 15 74 C9.25 73.875 9.25 73.875 7 75 C7 74.34 7 73.68 7 73 C4.69 73 2.38 73 0 73 C0 72.34 0 71.68 0 71 C-0.66 71 -1.32 71 -2 71 C-2 69.68 -2 68.36 -2 67 C-2.66 67 -3.32 67 -4 67 C-4 65.68 -4 64.36 -4 63 C-4.66 62.67 -5.32 62.34 -6 62 C-8.07 54.911 -8.385 47.465 -8.375 40.125 C-8.376 39.148 -8.378 38.172 -8.379 37.166 C-8.233 26.852 -6.316 17.02 -4 7 C-3.361 6.876 -2.721 6.753 -2.062 6.625 C-1.382 6.419 -0.701 6.213 0 6 C0.33 5.34 0.66 4.68 1 4 C1.66 4 2.32 4 3 4 C2.34 3.34 1.68 2.68 1 2 C0.67 1.34 0.34 0.68 0 0 Z M0 11 C-0.555 11.675 -1.111 12.349 -1.683 13.045 C-3 15 -3 15 -3 18 C-3.33 18.165 -3.33 18.165 -5 19 C-6.55 24.492 -5.938 30.053 -5.688 35.688 C-5.652 36.726 -5.617 37.764 -5.58 38.834 C-5.163 48.752 -4.527 58.084 2 66 C6.128 69.555 10.753 69.668 16 70 C13.94 66.395 11.649 63.197 9 60 C9.165 59.835 9.165 59.835 10 59 C10.508 59.41 11.016 59.82 11.539 60.242 C19.434 66.422 25.971 68.012 36 67 C43.6 65.103 50.093 61.436 54.434 54.812 C57.828 48.527 59.53 41.957 61 35 C61.99 35 62.98 35 64 35 C64.082 32.458 64.141 29.918 64.188 27.375 C64.213 26.662 64.238 25.949 64.264 25.215 C64.35 18.929 62.804 14.936 58.438 10.25 C57.633 9.508 56.829 8.765 56 8 C55.34 7.34 54.68 6.68 54 6 C48.973 3.844 44.323 3.635 38.945 3.559 C38.515 3.552 38.515 3.552 36.338 3.517 C34.524 3.494 32.711 3.476 30.897 3.465 C28.139 3.438 25.386 3.363 22.629 3.287 C5.593 3.034 5.593 3.034 0 11 Z M-6 51 C-5 55 -5 55 -5 55 Z M65 51 C66 53 66 53 66 53 Z M59 68 C60 70 60 70 60 70 Z M0 69 C1 71 1 71 1 71 Z M43 71 C43 71.33 43 71.66 43 72 C44.65 72 46.3 72 48 72 C48 71.67 48 71.34 48 71 C46.35 71 44.7 71 43 71 Z " fill="#949788" transform="translate(8,0)"/>
<path d="M0 0 C4.642 3.298 6.229 5.906 7.59 11.367 C8.961 21.26 5.834 31.42 0.188 39.625 C-4.87 45.605 -11.925 49.527 -19.723 50.254 C-29.992 50.656 -36.77 47.811 -44.273 40.875 C-46.804 38.127 -48.357 35.351 -50 32 C-50.33 31.34 -50.66 30.68 -51 30 C-51.04 27.667 -51.043 25.333 -51 23 C-50.051 23.887 -49.102 24.774 -48.125 25.688 C-38.047 34.056 -29.112 35.135 -16.296 34.248 C-8.614 33.418 -2.366 30.504 3 25 C5.886 20.31 5.758 15.335 5 10 C3.898 7.616 2.664 5.657 1.094 3.559 C0 2 0 2 0 0 Z " fill="#31332F" transform="translate(61,17)"/>
<path d="M0 0 C2.875 0.125 2.875 0.125 5 0 C4.484 0.598 3.969 1.196 3.438 1.812 C2.963 2.534 2.489 3.256 2 4 C2.33 4.99 2.66 5.98 3 7 C4.65 7 6.3 7 8 7 C8 5.35 8 3.7 8 2 C9.32 2.66 10.64 3.32 12 4 C11.688 5.875 11.688 5.875 11 8 C7.742 10.172 6.776 10.46 3 10 C0.687 8.5 0.687 8.5 -1 7 C-1.299 7.413 -1.299 7.413 -2.812 9.5 C-3.534 10.325 -4.256 11.15 -5 12 C-5.99 12 -6.98 12 -8 12 C-9.688 10 -9.688 10 -11 8 C-11.33 8.99 -11.66 9.98 -12 11 C-12.66 11 -13.32 11 -14 11 C-14 11.66 -14 12.32 -14 13 C-16.9 14.933 -19.878 16.439 -23 18 C-20.36 20.31 -17.72 22.62 -15 25 C-15 24.34 -15 23.68 -15 23 C-14.031 22.711 -13.061 22.422 -12.062 22.125 C-9 21 -9 21 -8 19 C-10.31 19 -12.62 19 -15 19 C-13.68 17.35 -12.36 15.7 -11 14 C-9.02 14.33 -7.04 14.66 -5 15 C-5 15.66 -5 16.32 -5 17 C-4.196 17.268 -3.391 17.536 -2.562 17.812 C-1.717 18.204 -0.871 18.596 0 19 C0.33 19.99 0.66 20.98 1 22 C2.32 22 3.64 22 5 22 C4.424 24.386 3.778 26.667 3 29 C11.311 27.934 21.486 25.53 26.836 18.633 C28.118 15.733 28.313 13.836 28.188 10.688 C28.16 9.804 28.133 8.921 28.105 8.012 C28.088 7.68 28.088 7.68 28 6 C27.34 6 26.68 6 26 6 C26 5.34 26 4.68 26 4 C25.01 3.67 24.02 3.34 23 3 C23.66 3 24.32 3 25 3 C25 1.35 25 -0.3 25 -2 C28 -1 28 -1 29.688 1.375 C31.485 6.34 31.701 10.775 31 16 C27.988 22.135 23.58 25.505 17.438 28.25 C7.098 31.753 -5.958 32.104 -15.875 27.312 C-17.619 26.266 -19.334 25.167 -21 24 C-21.666 23.536 -22.333 23.072 -23.02 22.594 C-25.699 20.536 -26.917 19.248 -28 16 C-28.067 14.439 -28.085 12.875 -28.062 11.312 C-28.053 10.504 -28.044 9.696 -28.035 8.863 C-28.024 8.248 -28.012 7.634 -28 7 C-27.34 7 -26.68 7 -26 7 C-26 6.01 -26 5.02 -26 4 C-25.01 3.67 -24.02 3.34 -23 3 C-23.165 3.516 -23.33 4.031 -23.5 4.562 C-24.15 7.734 -24.062 10.772 -24 14 C-23.278 13.196 -22.556 12.391 -21.812 11.562 C-18.975 8.977 -17.728 8.32 -14 8 C-16.31 7.34 -18.62 6.68 -21 6 C-21 5.34 -21 4.68 -21 4 C-18.69 4 -16.38 4 -14 4 C-13.67 3.01 -13.34 2.02 -13 1 C-7.831 -1.939 -5.428 -2.242 0 0 Z " fill="#BFA57E" transform="translate(36,22)"/>
<path d="M0 0 C0.66 0 1.32 0 2 0 C3.592 8.556 4.977 18.592 0.328 26.352 C-3.844 31.53 -8.633 33.436 -15 35 C-17.674 35.159 -20.234 35.235 -22.902 35.195 C-23.625 35.192 -24.347 35.19 -25.092 35.187 C-27.374 35.176 -29.656 35.151 -31.938 35.125 C-33.495 35.115 -35.053 35.106 -36.611 35.098 C-40.408 35.076 -44.204 35.041 -48 35 C-47.809 34.377 -47.618 33.755 -47.422 33.114 C-47.283 32.416 -47.143 31.719 -47 31 C-48.25 29.184 -48.25 29.184 -50 27.438 C-51.75 25.684 -51.75 25.684 -53 24 C-52.67 23.01 -52.34 22.02 -52 21 C-51.587 21.398 -51.175 21.797 -50.75 22.207 C-43.729 28.648 -37.582 30.617 -28.031 30.352 C-20.641 29.494 -14.097 26.452 -9 21 C-5.465 15.334 -3.302 9.358 -1.578 2.934 C-1 1 -1 1 0 0 Z " fill="#799B9C" transform="translate(69,36)"/>
<path d="M0 0 C2.188 3.282 2.267 4.371 2.344 8.191 C2.373 9.219 2.403 10.247 2.434 11.307 C2.456 12.381 2.477 13.456 2.5 14.562 C2.938 35.514 2.938 35.514 9 44 C11.25 45.75 11.25 45.75 14 47 C15.083 47.519 16.166 48.039 17.281 48.574 C23.41 50.856 29.811 50.238 36.25 50.062 C38.755 50.003 41.26 49.951 43.766 49.91 C44.316 49.895 44.316 49.895 47.103 49.821 C49.98 49.999 51.573 50.501 54 52 C43.254 53.473 32.853 54.284 22 54 C22 53.67 22 53.34 22 53 C16.25 52.875 16.25 52.875 14 54 C14 53.34 14 52.68 14 52 C11.69 52 9.38 52 7 52 C7 51.34 7 50.68 7 50 C6.34 50 5.68 50 5 50 C5 48.68 5 47.36 5 46 C4.34 46 3.68 46 3 46 C3 44.68 3 43.36 3 42 C2.34 41.67 1.68 41.34 1 41 C-1.215 33.603 -1.284 25.903 -1.188 18.25 C-1.187 17.261 -1.186 16.273 -1.186 15.254 C-1.154 10.068 -0.892 5.11 0 0 Z M1 30 C2 34 2 34 2 34 Z M7 48 C8 50 8 50 8 50 Z " fill="#84938E" transform="translate(1,21)"/>
<path d="M0 0 C2.875 0.125 2.875 0.125 5 0 C4.484 0.598 3.969 1.196 3.438 1.812 C2.963 2.534 2.489 3.256 2 4 C2.33 4.99 2.66 5.98 3 7 C4.65 7 6.3 7 8 7 C8 5.35 8 3.7 8 2 C9.32 2.66 10.64 3.32 12 4 C11.688 5.875 11.688 5.875 11 8 C7.742 10.172 6.776 10.46 3 10 C0.688 8.5 0.688 8.5 -1 7 C-1.299 7.413 -1.299 7.413 -2.812 9.5 C-3.534 10.325 -4.256 11.15 -5 12 C-5.99 12 -6.98 12 -8 12 C-9.688 10 -9.688 10 -11 8 C-11.33 8.99 -11.66 9.98 -12 11 C-12.66 11 -13.32 11 -14 11 C-14 11.66 -14 12.32 -14 13 C-17.249 15.321 -20.059 16.437 -24 17 C-22.503 12.244 -22.503 12.244 -21 10 C-17.313 8.562 -17.313 8.562 -14 8 C-16.31 7.34 -18.62 6.68 -21 6 C-21 5.34 -21 4.68 -21 4 C-18.69 4 -16.38 4 -14 4 C-13.67 3.01 -13.34 2.02 -13 1 C-7.831 -1.939 -5.428 -2.242 0 0 Z " fill="#FCB45A" transform="translate(36,22)"/>
<path d="M0 0 C0.557 0.495 1.114 0.99 1.688 1.5 C4.452 3.293 5.762 3.405 9 3 C11.312 2 11.312 2 13 1 C12.67 2.65 12.34 4.3 12 6 C10.35 6.33 8.7 6.66 7 7 C7.33 8.32 7.66 9.64 8 11 C-0.429 13.429 -0.429 13.429 -5 12 C-4.67 11.01 -4.34 10.02 -4 9 C-9.538 8.631 -9.538 8.631 -11.875 10.5 C-12.246 10.995 -12.617 11.49 -13 12 C-12.01 12.165 -12.01 12.165 -7 13 C-7.66 14.32 -8.32 15.64 -9 17 C-10.65 17 -12.3 17 -14 17 C-14 17.66 -14 18.32 -14 19 C-18.274 17.417 -20.265 14.494 -23 11 C-22.216 10.711 -21.432 10.422 -20.625 10.125 C-18 9 -18 9 -16 7 C-15.01 7 -14.02 7 -13 7 C-13 6.34 -13 5.68 -13 5 C-12.34 5 -11.68 5 -11 5 C-10.67 3.68 -10.34 2.36 -10 1 C-8.5 2.375 -8.5 2.375 -7 4 C-7 4.66 -7 5.32 -7 6 C-3.633 4.607 -2.014 3.021 0 0 Z " fill="#FC8B37" transform="translate(35,28)"/>
<path d="M0 0 C2.64 0.33 5.28 0.66 8 1 C8 2.32 8 3.64 8 5 C5.688 6.562 5.688 6.562 3 8 C2.773 8.247 2.773 8.247 1.625 9.5 C-0.854 11.788 -3.92 12.688 -7 14 C-7.33 14.66 -7.66 15.32 -8 16 C-10.31 16 -12.62 16 -15 16 C-14.67 16.66 -14.34 17.32 -14 18 C-11.686 18.731 -9.352 19.401 -7 20 C-7 20.33 -7 20.66 -7 21 C-8.238 21.247 -9.475 21.495 -10.75 21.75 C-14.514 22.671 -16.531 23.913 -19 27 C-19.233 20.717 -18.405 15.12 -17 9 C-14 9 -11 9 -8 9 C-8.66 8.67 -9.32 8.34 -10 8 C-9.67 6.68 -9.34 5.36 -9 4 C-6.69 4 -4.38 4 -2 4 C-2 3.34 -2 2.68 -2 2 C-1.34 2 -0.68 2 0 2 C0 1.34 0 0.68 0 0 Z " fill="#A4BC32" transform="translate(30,10)"/>
<path d="M0 0 C2.008 3.012 2.564 5.405 3.367 8.879 C4.378 12.266 6.176 14.979 8 18 C8.289 18.804 8.578 19.609 8.875 20.438 C10.353 23.805 12.494 26.446 14.758 29.328 C16 31 16 31 16 32 C9.952 31.731 5.762 31.082 1 27 C-1.324 23.999 -2.025 22.57 -1.855 18.73 C-1.635 17.561 -1.415 16.392 -1.188 15.188 C-0.297 9.994 0.21 5.256 0 0 Z " fill="#ADC0BE" transform="translate(8,38)"/>
<path d="M0 0 C4.642 3.298 6.229 5.906 7.59 11.367 C8.961 21.26 5.834 31.42 0.188 39.625 C-2.85 43.222 -6.584 46.277 -11 48 C-11.99 47.67 -12.98 47.34 -14 47 C-13.34 46.34 -12.68 45.68 -12 45 C-10.661 43.338 -9.329 41.67 -8 40 C-7.78 39.755 -7.78 39.755 -6.664 38.516 C-3.099 34.517 -3.099 34.517 -2.5 31.375 C-1.782 27.962 0.284 27.053 3 25 C5.929 20.364 5.752 15.294 5 10 C3.898 7.616 2.664 5.657 1.094 3.559 C0 2 0 2 0 0 Z " fill="#594E44" transform="translate(61,17)"/>
<path d="M0 0 C1.383 0.013 2.766 0.037 4.148 0.07 C4.855 0.079 5.561 0.088 6.289 0.098 C8.034 0.121 9.779 0.157 11.523 0.195 C11.523 0.525 11.523 0.855 11.523 1.195 C6.903 1.195 2.283 1.195 -2.477 1.195 C-2.477 1.855 -2.477 2.515 -2.477 3.195 C-1.487 3.195 -0.497 3.195 0.523 3.195 C0.523 3.855 0.523 4.515 0.523 5.195 C2.173 5.195 3.823 5.195 5.523 5.195 C5.523 5.855 5.523 6.515 5.523 7.195 C3.887 8.244 2.219 9.244 0.523 10.195 C0.193 10.525 -0.137 10.855 -0.477 11.195 C0.183 11.855 0.843 12.515 1.523 13.195 C0.863 13.195 0.203 13.195 -0.477 13.195 C-0.477 14.845 -0.477 16.495 -0.477 18.195 C-2.127 18.525 -3.777 18.855 -5.477 19.195 C-6.137 17.875 -6.797 16.555 -7.477 15.195 C-6.487 14.205 -5.497 13.215 -4.477 12.195 C-5.425 12.237 -6.374 12.278 -7.352 12.32 C-10.477 12.195 -10.477 12.195 -12.477 10.195 C-12.477 8.32 -12.477 8.32 -11.477 6.195 C-8.539 4.07 -8.539 4.07 -5.477 2.195 C-3.477 0.195 -3.477 0.195 0 0 Z " fill="#FB9611" transform="translate(44.4765625,10.8046875)"/>
<path d="M0 0 C0.99 0.165 0.99 0.165 6 1 C6 1.66 6 2.32 6 3 C6.804 3.268 7.609 3.536 8.438 3.812 C9.283 4.204 10.129 4.596 11 5 C11.33 5.99 11.66 6.98 12 8 C13.32 8 14.64 8 16 8 C16 8.99 16 9.98 16 11 C15.01 11 14.02 11 13 11 C13 11.99 13 12.98 13 14 C10.875 14.054 8.75 14.093 6.625 14.125 C6.033 14.137 6.033 14.137 3.039 14.195 C0 14 0 14 -2 12 C-1.34 12 -0.68 12 0 12 C-0.33 11.01 -0.66 10.02 -1 9 C0.32 7.68 1.64 6.36 3 5 C0.69 5 -1.62 5 -4 5 C-2.68 3.35 -1.36 1.7 0 0 Z " fill="#FDD05C" transform="translate(25,36)"/>
<path d="M0 0 C0.795 2.28 1.201 3.498 0.285 5.781 C-3.848 11.591 -9.005 14.63 -16 16 C-18.546 16.083 -21.064 16.116 -23.609 16.098 C-24.336 16.096 -25.063 16.095 -25.812 16.093 C-28.125 16.088 -30.437 16.075 -32.75 16.062 C-34.322 16.057 -35.893 16.053 -37.465 16.049 C-41.31 16.038 -45.155 16.021 -49 16 C-48.794 15.402 -48.587 14.804 -48.375 14.188 C-48 12 -48 12 -50 9 C-49.732 9.144 -49.732 9.144 -48.375 9.875 C-41.649 13.061 -35.776 13.336 -28.438 13.312 C-27.923 13.321 -27.923 13.321 -25.322 13.361 C-19.921 13.365 -16.512 13.243 -12 10 C-11.01 10.33 -10.02 10.66 -9 11 C-4.187 9.149 -2.729 6.098 -0.699 1.645 C-0.468 1.102 -0.238 0.559 0 0 Z " fill="#88A6A6" transform="translate(70,55)"/>
<path d="M0 0 C2.875 0.125 2.875 0.125 5 0 C4.484 0.598 3.969 1.196 3.438 1.812 C2.963 2.534 2.489 3.256 2 4 C2.33 4.99 2.66 5.98 3 7 C4.65 7 6.3 7 8 7 C8 5.35 8 3.7 8 2 C9.32 2.66 10.64 3.32 12 4 C11.688 5.875 11.688 5.875 11 8 C7.752 10.166 6.769 10.552 3 10 C0.688 8.187 0.688 8.187 -1 6 C-1 5.01 -1 4.02 -1 3 C-1.99 2.835 -1.99 2.835 -7 2 C-7.388 2.645 -7.776 3.289 -8.176 3.953 C-10 6 -10 6 -12.48 6.609 C-13.374 6.656 -14.267 6.702 -15.188 6.75 C-16.089 6.807 -16.99 6.863 -17.918 6.922 C-18.262 6.935 -18.262 6.935 -20 7 C-20.33 6.01 -20.66 5.02 -21 4 C-18.69 4 -16.38 4 -14 4 C-13.67 3.01 -13.34 2.02 -13 1 C-7.831 -1.939 -5.428 -2.242 0 0 Z " fill="#FBEBA5" transform="translate(36,22)"/>
<path d="M0 0 C2.31 0 4.62 0 7 0 C7.33 0.99 7.66 1.98 8 3 C8.99 3.33 9.98 3.66 11 4 C10.67 4.495 10.67 4.495 9 7 C5.375 7.188 5.375 7.188 2 7 C2.33 7.66 2.66 8.32 3 9 C5.314 9.731 7.648 10.401 10 11 C10 11.33 10 11.66 10 12 C8.762 12.248 7.525 12.495 6.25 12.75 C2.486 13.671 0.469 14.913 -2 18 C-2.233 11.717 -1.405 6.12 0 0 Z " fill="#4BA00B" transform="translate(13,19)"/>
<path d="M0 0 C0 0.66 0 1.32 0 2 C0.66 2.33 1.32 2.66 2 3 C1.01 5.31 0.02 7.62 -1 10 C-8.429 10.143 -8.429 10.143 -12 9 C-12 9.66 -12 10.32 -12 11 C-12.99 11 -13.98 11 -15 11 C-13.165 6.496 -10.019 3.285 -5.938 0.688 C-4 0 -4 0 0 0 Z " fill="#E88124" transform="translate(62,26)"/>
<path d="M0 0 C4.342 -0.05 8.683 -0.086 13.025 -0.11 C14.501 -0.12 15.977 -0.134 17.454 -0.151 C19.579 -0.175 21.703 -0.187 23.828 -0.195 C25.106 -0.206 26.384 -0.216 27.7 -0.227 C30.775 -0.016 32.437 0.369 35 2 C5.97 5.98 5.97 5.98 0 2 C0 1.34 0 0.68 0 0 Z " fill="#74817C" transform="translate(20,71)"/>
<path d="M0 0 C3.372 5.057 2.608 11.049 2.812 17 C2.876 18.297 2.94 19.594 3.006 20.93 C3.052 22.17 3.097 23.41 3.145 24.688 C3.189 25.826 3.234 26.964 3.281 28.137 C3 31 3 31 1.491 32.895 C0.999 33.259 0.507 33.624 0 34 C-0.916 30.877 -1.129 28.074 -1.133 24.824 C-1.134 23.831 -1.135 22.838 -1.137 21.814 C-1.133 20.783 -1.129 19.751 -1.125 18.688 C-1.129 17.667 -1.133 16.647 -1.137 15.596 C-1.13 10.289 -0.929 5.227 0 0 Z " fill="#90A191" transform="translate(1,21)"/>
<path d="M0 0 C2.418 -0.108 4.831 -0.187 7.25 -0.25 C7.591 -0.267 7.591 -0.267 9.316 -0.352 C12.821 -0.42 14.629 -0.289 17.434 1.895 C19.069 4.092 19.753 5.288 20 8 C19.562 10.75 19.562 10.75 19 13 C18.01 13.33 17.02 13.66 16 14 C15.67 10.04 15.34 6.08 15 2 C13.68 2 12.36 2 11 2 C10.67 3.32 10.34 4.64 10 6 C9.34 6 8.68 6 8 6 C8 5.34 8 4.68 8 4 C6.35 4 4.7 4 3 4 C3 3.34 3 2.68 3 2 C2.01 2 1.02 2 0 2 C0 1.34 0 0.68 0 0 Z " fill="#C55E26" transform="translate(42,12)"/>
<path d="M0 0 C2.007 3.01 2.568 5.394 3.355 8.871 C4.034 11.111 4.96 12.826 6.188 14.812 C6.487 15.338 6.487 15.338 8 18 C6.755 21.736 5.366 22.188 2 24 C0.223 20.938 -0.241 18.76 -0.195 15.234 C-0.189 14.345 -0.182 13.455 -0.176 12.539 C-0.159 11.619 -0.142 10.698 -0.125 9.75 C-0.116 8.814 -0.107 7.878 -0.098 6.914 C-0.074 4.609 -0.041 2.305 0 0 Z " fill="#C9CEC5" transform="translate(8,38)"/>
<path d="M0 0 C0.66 0 1.32 0 2 0 C0.707 2.884 -0.659 4.872 -3 7 C-2.01 7.165 -2.01 7.165 3 8 C2.34 9.32 1.68 10.64 1 12 C-0.65 12 -2.3 12 -4 12 C-4 12.66 -4 13.32 -4 14 C-8.274 12.417 -10.265 9.494 -13 6 C-12.557 6.041 -12.557 6.041 -10.312 6.25 C-6.288 5.946 -4.956 4.628 -2 2 C-1.34 2 -0.68 2 0 2 C0 1.34 0 0.68 0 0 Z " fill="#8D3114" transform="translate(25,33)"/>
<path d="M0 0 C1.812 1.812 1.812 1.812 3 4 C2.67 4.99 2.34 5.98 2 7 C-3.489 8.12 -6.834 7.792 -12 6 C-11.625 4.062 -11.625 4.062 -11 2 C-7.386 0.193 -4.016 0 0 0 Z " fill="#E7B740" transform="translate(55,38)"/>
<path d="M0 0 C1.32 0 2.64 0 4 0 C5.203 2.405 5.101 3.95 5.062 6.625 C5.053 7.442 5.044 8.26 5.035 9.102 C5.024 9.728 5.012 10.355 5 11 C-0.75 14 -0.75 14 -3 14 C-2.67 12.68 -2.34 11.36 -2 10 C-0.68 9.67 0.64 9.34 2 9 C-0.31 9 -2.62 9 -5 9 C-3.974 5.923 -3.192 5.192 -1 3 C-0.67 2.01 -0.34 1.02 0 0 Z " fill="#F89728" transform="translate(53,14)"/>
<path d="M0 0 C2 1.375 2 1.375 4 3 C4 3.66 4 4.32 4 5 C5.155 4.835 5.155 4.835 11 4 C11 6.31 11 8.62 11 11 C9.35 11 7.7 11 6 11 C6.33 10.01 6.66 9.02 7 8 C5.35 7.67 3.7 7.34 2 7 C2.33 6.01 2.66 5.02 3 4 C2.34 4 1.68 4 1 4 C1 4.66 1 5.32 1 6 C-0.391 7.324 -0.391 7.324 -2.25 8.688 C-2.853 9.145 -3.457 9.603 -4.078 10.074 C-6 11 -6 11 -8.234 10.645 C-8.817 10.432 -9.4 10.219 -10 10 C-5.375 6 -5.375 6 -2 6 C-2 5.34 -2 4.68 -2 4 C-1.34 4 -0.68 4 0 4 C0 2.68 0 1.36 0 0 Z " fill="#F05B25" transform="translate(24,29)"/>
<path d="M0 0 C0.33 0.66 0.66 1.32 1 2 C3.332 2.345 5.665 2.678 8 3 C8.99 3.66 9.98 4.32 11 5 C10.01 5.33 9.02 5.66 8 6 C7.67 6.66 7.34 7.32 7 8 C3.527 9.158 0.639 9.069 -3 9 C-2.424 6.614 -1.778 4.333 -1 2 C-2.32 1.67 -3.64 1.34 -5 1 C-3.35 0.67 -1.7 0.34 0 0 Z " fill="#DF741D" transform="translate(42,42)"/>
<path d="M0 0 C0.33 0.66 0.66 1.32 1 2 C0.67 2.66 0.34 3.32 0 4 C-0.348 13.409 -0.348 13.409 2.629 16.922 C3.267 17.525 3.905 18.128 4.562 18.75 C5.203 19.364 5.844 19.977 6.504 20.609 C6.998 21.068 7.491 21.527 8 22 C4.46 22 3.635 21.281 0.875 19.188 C0.171 18.665 -0.533 18.143 -1.258 17.605 C-3.528 15.514 -3.966 13.786 -4.098 10.738 C-4.086 9.938 -4.074 9.137 -4.062 8.312 C-4.053 7.504 -4.044 6.696 -4.035 5.863 C-4.024 5.248 -4.012 4.634 -4 4 C-3.34 4 -2.68 4 -2 4 C-2 3.01 -2 2.02 -2 1 C-1.34 0.67 -0.68 0.34 0 0 Z " fill="#C0B58B" transform="translate(12,25)"/>
<path d="M0 0 C0.66 0.33 1.32 0.66 2 1 C2.458 10.002 2.458 10.002 -1 14 C-5.003 17.059 -8.883 19.52 -14 20 C-13 18 -13 18 -9.625 16.688 C-5.661 14.842 -5.001 13.702 -3 10 C-2.01 10 -1.02 10 0 10 C-0.371 9.093 -0.742 8.185 -1.125 7.25 C-2 4 -2 4 -1.125 1.625 C-0.754 1.089 -0.383 0.552 0 0 Z " fill="#9D3911" transform="translate(63,29)"/>
<path d="M0 0 C2.978 2.553 4.294 5.514 6 9 C6.66 9.66 7.32 10.32 8 11 C8.125 14.125 8.125 14.125 8 17 C3.784 15.255 2.628 13.19 0.75 9.176 C-0.359 5.958 -0.281 3.375 0 0 Z " fill="#524F47" transform="translate(10,40)"/>
<path d="M0 0 C0.66 0 1.32 0 2 0 C2 1.65 2 3.3 2 5 C1.34 5 0.68 5 0 5 C0 5.66 0 6.32 0 7 C-3.249 9.321 -6.059 10.437 -10 11 C-8.503 6.244 -8.503 6.244 -7 4 C-3.312 2.562 -3.312 2.562 0 2 C0 1.34 0 0.68 0 0 Z " fill="#E1B73B" transform="translate(22,28)"/>
<path d="M0 0 C-1.32 1.65 -2.64 3.3 -4 5 C-1.36 4.67 1.28 4.34 4 4 C3.67 4.66 3.34 5.32 3 6 C2.361 6.124 1.721 6.247 1.062 6.375 C-1 7 -1 7 -2.25 9.062 C-2.498 9.702 -2.745 10.341 -3 11 C-6 7.25 -6 7.25 -6 5 C-7.32 4.34 -8.64 3.68 -10 3 C-6.488 0.592 -4.273 -0.366 0 0 Z " fill="#F96C0F" transform="translate(52,18)"/>
<path d="M0 0 C1.648 0.281 3.293 0.575 4.938 0.875 C5.854 1.037 6.771 1.2 7.715 1.367 C8.469 1.576 9.223 1.785 10 2 C10.33 2.66 10.66 3.32 11 4 C10.381 4.124 10.381 4.124 7.25 4.75 C3.486 5.671 1.469 6.913 -1 10 C-1.125 2.25 -1.125 2.25 0 0 Z " fill="#587E1A" transform="translate(12,27)"/>
<path d="M0 0 C2.64 0.33 5.28 0.66 8 1 C8 2.32 8 3.64 8 5 C5.562 6.625 5.562 6.625 3 8 C2.67 8.66 2.34 9.32 2 10 C1.34 10 0.68 10 0 10 C0 8.68 0 7.36 0 6 C0.66 6 1.32 6 2 6 C2 4.35 2 2.7 2 1 C1.34 0.67 0.68 0.34 0 0 Z " fill="#8FBB49" transform="translate(30,10)"/>
<path d="M0 0 C5.75 0.75 5.75 0.75 8 3 C7.34 3 6.68 3 6 3 C6 4.65 6 6.3 6 8 C4.35 8.33 2.7 8.66 1 9 C0.34 7.68 -0.32 6.36 -1 5 C-0.01 4.01 0.98 3.02 2 2 C1.34 1.34 0.68 0.68 0 0 Z " fill="#FDCA4F" transform="translate(38,21)"/>
<path d="M0 0 C1.32 0.66 2.64 1.32 4 2 C3.688 3.875 3.688 3.875 3 6 C-0.248 8.166 -1.231 8.552 -5 8 C-7.312 6.188 -7.312 6.188 -9 4 C-9 3.01 -9 2.02 -9 1 C-8.01 1.33 -7.02 1.66 -6 2 C-5.67 2.99 -5.34 3.98 -5 5 C-3.35 5 -1.7 5 0 5 C0 3.35 0 1.7 0 0 Z " fill="#FADA71" transform="translate(44,24)"/>
<path d="M0 0 C0.66 0.99 1.32 1.98 2 3 C-2.943 6.042 -7.309 6.835 -13 6 C-13.99 5.34 -14.98 4.68 -16 4 C-15.264 3.879 -14.528 3.758 -13.77 3.633 C-12.794 3.465 -11.818 3.298 -10.812 3.125 C-9.85 2.963 -8.887 2.8 -7.895 2.633 C-5.09 2.02 -2.628 1.143 0 0 Z " fill="#6F9494" transform="translate(52,63)"/>
<path d="M0 0 C0.702 0.014 1.404 0.027 2.127 0.041 C3.856 0.076 5.584 0.13 7.312 0.188 C7.312 0.518 7.312 0.848 7.312 1.188 C2.692 1.188 -1.928 1.188 -6.688 1.188 C-6.688 1.848 -6.688 2.508 -6.688 3.188 C-5.697 3.188 -4.707 3.188 -3.688 3.188 C-3.358 4.508 -3.028 5.828 -2.688 7.188 C-3.347 6.858 -4.008 6.527 -4.688 6.188 C-8.523 6.017 -11.953 6.309 -15.688 7.188 C-14.924 6.589 -14.161 5.991 -13.375 5.375 C-10.688 3.188 -10.688 3.188 -9.5 1.562 C-6.618 -0.624 -3.459 -0.126 0 0 Z " fill="#ECA936" transform="translate(48.6875,10.8125)"/>
<path d="M0 0 C3.96 0 7.92 0 12 0 C12.33 1.32 12.66 2.64 13 4 C11.02 4.99 9.04 5.98 7 7 C6.34 5.68 5.68 4.36 5 3 C4.34 3 3.68 3 3 3 C3 2.34 3 1.68 3 1 C2.01 0.67 1.02 0.34 0 0 Z " fill="#E2691C" transform="translate(50,35)"/>
<path d="M0 0 C0.812 1.625 0.812 1.625 1 4 C-0.601 6.053 -2.268 8.057 -4 10 C-4 10.66 -4 11.32 -4 12 C-5.98 12.66 -7.96 13.32 -10 14 C-10 13.01 -10 12.02 -10 11 C-9.34 11 -8.68 11 -8 11 C-6.979 9.346 -5.984 7.676 -5 6 C-3.392 3.944 -1.704 1.98 0 0 Z " fill="#363E3B" transform="translate(58,51)"/>
<path d="M0 0 C0.382 0.113 0.382 0.113 2.312 0.688 C2.312 1.678 2.312 2.667 2.312 3.688 C1.322 3.688 0.332 3.688 -0.688 3.688 C-0.688 4.678 -0.688 5.668 -0.688 6.688 C-2.668 6.688 -4.648 6.688 -6.688 6.688 C-6.288 4.368 -5.782 2.824 -4.438 0.875 C-2.688 -0.312 -2.688 -0.312 0 0 Z " fill="#FAD494" transform="translate(38.6875,43.3125)"/>
<path d="M0 0 C0.33 0.66 0.66 1.32 1 2 C2.98 1.67 4.96 1.34 7 1 C6.67 2.65 6.34 4.3 6 6 C2.625 6.125 2.625 6.125 -1 6 C-1.66 5.34 -2.32 4.68 -3 4 C-2.34 4 -1.68 4 -1 4 C-1.33 3.01 -1.66 2.02 -2 1 C-1.34 0.67 -0.68 0.34 0 0 Z " fill="#F8A332" transform="translate(26,44)"/>
<path d="M0 0 C5.75 2.5 5.75 2.5 8 7 C4.7 6.34 1.4 5.68 -2 5 C-1 1 -1 1 0 0 Z " fill="#F7E588" transform="translate(45,39)"/>
<path d="M0 0 C2.729 0.033 5.297 0.564 8 1 C7.375 2.938 7.375 2.938 6 5 C2.875 5.75 2.875 5.75 0 6 C-0.66 4.68 -1.32 3.36 -2 2 C-1.34 1.34 -0.68 0.68 0 0 Z " fill="#E1611D" transform="translate(20,40)"/>
<path d="M0 0 C0.99 0.165 0.99 0.165 6 1 C5.34 2.65 4.68 4.3 4 6 C1.36 5.67 -1.28 5.34 -4 5 C-2.68 3.35 -1.36 1.7 0 0 Z " fill="#F5A762" transform="translate(25,36)"/>
<path d="M0 0 C2.125 0.375 2.125 0.375 4 1 C4 2.32 4 3.64 4 5 C3.34 5.66 2.68 6.32 2 7 C0.68 7 -0.64 7 -2 7 C-2.125 4.625 -2.125 4.625 -2 2 C-1.34 1.34 -0.68 0.68 0 0 Z " fill="#E87030" transform="translate(29,23)"/>
<path d="M0 0 C0 1.65 0 3.3 0 5 C-0.66 5 -1.32 5 -2 5 C-2 6.32 -2 7.64 -2 9 C-2.99 9 -3.98 9 -5 9 C-5.66 7.35 -6.32 5.7 -7 4 C-6.01 4 -5.02 4 -4 4 C-4 3.01 -4 2.02 -4 1 C-2 0 -2 0 0 0 Z " fill="#70AB21" transform="translate(32,11)"/>
<path d="M0 0 C0.66 0.33 1.32 0.66 2 1 C0.25 6.75 0.25 6.75 -2 9 C-4.625 9.125 -4.625 9.125 -7 9 C-7.33 8.01 -7.66 7.02 -8 6 C-6.845 5.835 -6.845 5.835 -1 5 C-1.33 3.68 -1.66 2.36 -2 1 C-1.34 0.67 -0.68 0.34 0 0 Z " fill="#F14F16" transform="translate(44,34)"/>
<path d="M0 0 C0.99 0.66 1.98 1.32 3 2 C3 2.66 3 3.32 3 4 C2.34 4 1.68 4 1 4 C1 4.66 1 5.32 1 6 C-0.391 7.324 -0.391 7.324 -2.25 8.688 C-2.853 9.145 -3.457 9.603 -4.078 10.074 C-6 11 -6 11 -8.234 10.645 C-8.817 10.432 -9.4 10.219 -10 10 C-5.375 6 -5.375 6 -2 6 C-2 5.34 -2 4.68 -2 4 C-1.34 4 -0.68 4 0 4 C0 2.68 0 1.36 0 0 Z " fill="#DB7118" transform="translate(24,29)"/>
<path d="M0 0 C0 0.66 0 1.32 0 2 C0.66 2.33 1.32 2.66 2 3 C1.01 3.99 0.02 4.98 -1 6 C-1 5.34 -1 4.68 -1 4 C-3.64 4 -6.28 4 -9 4 C-5.86 0.718 -4.768 0 0 0 Z " fill="#EFAB3A" transform="translate(62,26)"/>
<path d="M0 0 C0.99 0.66 1.98 1.32 3 2 C-1.625 7.875 -1.625 7.875 -5 9 C-5 4.61 -2.872 3.231 0 0 Z " fill="#3D4946" transform="translate(59,53)"/>
<path d="M0 0 C0.33 0.66 0.66 1.32 1 2 C3.322 2.407 5.657 2.744 8 3 C5.381 4.746 3.962 5.387 1 6 C1 5.34 1 4.68 1 4 C0.34 4 -0.32 4 -1 4 C-1 3.34 -1 2.68 -1 2 C-2.32 1.67 -3.64 1.34 -5 1 C-3.35 0.67 -1.7 0.34 0 0 Z " fill="#F7AC3F" transform="translate(42,42)"/>
<path d="M0 0 C1 3 1 3 1 5 C-1.709 6.354 -4.009 6.065 -7 6 C-7.33 5.01 -7.66 4.02 -8 3 C-5.69 3 -3.38 3 -1 3 C-0.67 2.01 -0.34 1.02 0 0 Z " fill="#EFED7B" transform="translate(23,23)"/>
<path d="M0 0 C4.827 2.413 7.7 5.861 11 10 C6.391 8.509 3.467 6.305 0 3 C0 2.01 0 1.02 0 0 Z " fill="#ADA8A0" transform="translate(9,38)"/>
<path d="M0 0 C2.468 1.152 4.048 2.048 6 4 C4.02 4 2.04 4 0 4 C0 4.66 0 5.32 0 6 C-0.99 6 -1.98 6 -3 6 C-2 4 -1 2 0 0 Z " fill="#F8BD66" transform="translate(50,31)"/>
<path d="M0 0 C0.763 0.206 1.526 0.413 2.312 0.625 C0.338 3.148 -0.655 3.618 -3.875 4.312 C-4.339 4.364 -4.339 4.364 -6.688 4.625 C-5.399 0.76 -4.17 -0.582 0 0 Z " fill="#FAC571" transform="translate(54.6875,18.375)"/>
<path d="M0 0 C1.98 0 3.96 0 6 0 C6.33 1.65 6.66 3.3 7 5 C6.34 5 5.68 5 5 5 C5 4.34 5 3.68 5 3 C3.35 3 1.7 3 0 3 C0 2.01 0 1.02 0 0 Z " fill="#B43A1B" transform="translate(45,13)"/>
<path d="M0 0 C0.66 0.33 1.32 0.66 2 1 C2 3.64 2 6.28 2 9 C0.68 8.01 -0.64 7.02 -2 6 C-1.34 4.02 -0.68 2.04 0 0 Z " fill="#5E3119" transform="translate(63,29)"/>
<path d="M0 0 C1.32 0 2.64 0 4 0 C4.33 1.32 4.66 2.64 5 4 C3.68 4.33 2.36 4.66 1 5 C0.34 3.68 -0.32 2.36 -1 1 C-0.67 0.67 -0.34 0.34 0 0 Z " fill="#F57316" transform="translate(38,25)"/>
<path d="M0 0 C0.66 0 1.32 0 2 0 C2 2.97 2 5.94 2 9 C1.34 9 0.68 9 0 9 C-1.125 3.375 -1.125 3.375 0 0 Z " fill="#8AB2AC" transform="translate(5,49)"/>
<path d="M0 0 C0.66 0.165 0.66 0.165 4 1 C4 1.99 4 2.98 4 4 C4.99 4.66 5.98 5.32 7 6 C1.25 5.125 1.25 5.125 -1 4 C-0.67 2.68 -0.34 1.36 0 0 Z " fill="#D0B98A" transform="translate(21,45)"/>
<path d="M0 0 C0.99 0.33 1.98 0.66 3 1 C2.67 1.66 2.34 2.32 2 3 C2.99 3 3.98 3 5 3 C5 3.66 5 4.32 5 5 C3.68 5 2.36 5 1 5 C1.33 6.32 1.66 7.64 2 9 C1.34 8.67 0.68 8.34 0 8 C0 5.36 0 2.72 0 0 Z " fill="#7CCE2E" transform="translate(13,19)"/>
<path d="M0 0 C0 0.66 0 1.32 0 2 C0.66 2.33 1.32 2.66 2 3 C-0.64 3 -3.28 3 -6 3 C-6 2.01 -6 1.02 -6 0 C-3.509 -1.245 -2.589 -0.777 0 0 Z " fill="#FC8305" transform="translate(43,18)"/>
<path d="M0 0 C1.65 0 3.3 0 5 0 C5.33 1.32 5.66 2.64 6 4 C4.125 4.625 4.125 4.625 2 5 C1.34 4.34 0.68 3.68 0 3 C0 2.01 0 1.02 0 0 Z " fill="#FA9022" transform="translate(32,18)"/>
<path d="M0 0 C0.33 0 0.66 0 1 0 C1.66 3.63 2.32 7.26 3 11 C2.01 11 1.02 11 0 11 C-1.374 7.182 -0.68 3.927 0 0 Z " fill="#B7C9C3" transform="translate(7,51)"/>
<path d="M0 0 C1.65 0 3.3 0 5 0 C5 0.66 5 1.32 5 2 C2 4 2 4 -2 4 C-1.34 2.68 -0.68 1.36 0 0 Z " fill="#FDE18A" transform="translate(30,40)"/>
<path d="M0 0 C0.33 0.99 0.66 1.98 1 3 C1.66 3 2.32 3 3 3 C3.33 4.32 3.66 5.64 4 7 C3.67 7.165 3.67 7.165 2 8 C1.01 7.34 0.02 6.68 -1 6 C-0.34 5.67 0.32 5.34 1 5 C0.01 4.34 -0.98 3.68 -2 3 C-2 2.34 -2 1.68 -2 1 C-1.34 0.67 -0.68 0.34 0 0 Z " fill="#97AF27" transform="translate(22,15)"/>
<path d="M0 0 C0.33 1.32 0.66 2.64 1 4 C-0.812 4.625 -0.812 4.625 -3 5 C-3.99 4.34 -4.98 3.68 -6 3 C-4.02 2.01 -2.04 1.02 0 0 Z " fill="#F78E1D" transform="translate(47,29)"/>
<path d="M0 0 C1.65 0.33 3.3 0.66 5 1 C4.34 2.32 3.68 3.64 3 5 C2.67 4.34 2.34 3.68 2 3 C1.01 3 0.02 3 -1 3 C-0.67 2.01 -0.34 1.02 0 0 Z " fill="#5AB319" transform="translate(16,19)"/>
<path d="M0 0 C2.64 0.33 5.28 0.66 8 1 C8 1.66 8 2.32 8 3 C6.02 3.33 4.04 3.66 2 4 C1.34 2.68 0.68 1.36 0 0 Z " fill="#C5490E" transform="translate(18,42)"/>
<path d="M0 0 C1.65 0 3.3 0 5 0 C5 0.66 5 1.32 5 2 C3.02 2.66 1.04 3.32 -1 4 C-0.67 2.68 -0.34 1.36 0 0 Z " fill="#FDB23A" transform="translate(51,24)"/>
<path d="M0 0 C1.32 0.33 2.64 0.66 4 1 C4.33 2.32 4.66 3.64 5 5 C4.01 5 3.02 5 2 5 C1.34 3.35 0.68 1.7 0 0 Z " fill="#487F1A" transform="translate(25,15)"/>
<path d="M0 0 C1.32 0 2.64 0 4 0 C4 0.66 4 1.32 4 2 C3.34 2 2.68 2 2 2 C2 2.66 2 3.32 2 4 C0.35 4 -1.3 4 -3 4 C-2.34 3.67 -1.68 3.34 -1 3 C-0.67 2.01 -0.34 1.02 0 0 Z " fill="#99C490" transform="translate(26,10)"/>
<path d="" fill="#8B9089" transform="translate(0,0)"/>
<path d="" fill="#788784" transform="translate(0,0)"/>
<path d="" fill="#798885" transform="translate(0,0)"/>
<path d="" fill="#829592" transform="translate(0,0)"/>
<path d="" fill="#8A9B95" transform="translate(0,0)"/>
<path d="" fill="#8CA595" transform="translate(0,0)"/>
<path d="" fill="#89A392" transform="translate(0,0)"/>
<path d="" fill="#9E9687" transform="translate(0,0)"/>
</svg>
